<svg width="41" height="41" viewBox="0 0 41 41" fill="none" xmlns="http://www.w3.org/2000/svg">
<path d="M36.4825 25.4336L20.4982 15.5983L4.51544 25.4362C3.91206 25.8065 3.12286 25.6195 2.75384 25.0161C2.38226 24.414 2.57053 23.6248 3.17391 23.2545L19.8279 13.004C20.2391 12.7503 20.7593 12.7503 21.1705 13.0039L37.8262 23.2517C38.4296 23.6232 38.6168 24.4111 38.2466 25.0132C37.8725 25.6192 37.0808 25.8025 36.4825 25.4336Z" fill="#FD650B"/>
<path d="M23.7032 28.1864L17.2975 28.1869C16.9439 28.1869 16.6569 28.4739 16.6569 28.8275L16.6577 38.4361L7.68974 38.4368L7.68871 25.7394L20.4995 17.8555L33.3115 25.7386L33.3125 38.4347L24.3446 38.4355L24.3438 28.8269C24.3438 28.4733 24.0568 28.1864 23.7032 28.1864ZM35.8719 2.5626L35.8726 10.5441C35.8726 10.9079 35.4332 11.0899 35.1757 10.8324L32.5209 8.17811L28.0373 12.6625C27.5172 13.1839 26.7114 13.2801 26.081 12.9035L20.5091 9.56143L2.56374 20.6076L2.56343 16.8474L19.6594 6.32533C20.168 6.01141 20.8086 6.00752 21.3236 6.31623L26.6573 9.51609L30.257 5.9158L27.6022 3.26149C27.3434 3.00272 27.5266 2.56327 27.8904 2.56324L35.8719 2.5626Z" fill="#FD650B"/>
</svg>
